<?xml version="1.0" encoding="UTF-8" standalone="no"?>
<svg
   xmlns:dc="http://purl.org/dc/elements/1.1/"
   xmlns:cc="http://creativecommons.org/ns#"
   xmlns:rdf="http://www.w3.org/1999/02/22-rdf-syntax-ns#"
   xmlns:svg="http://www.w3.org/2000/svg"
   xmlns="http://www.w3.org/2000/svg"
   xmlns:sodipodi="http://sodipodi.sourceforge.net/DTD/sodipodi-0.dtd"
   xmlns:inkscape="http://www.inkscape.org/namespaces/inkscape"
   viewBox="0 0 448.23 540"
   version="1.1"
   id="svg841"
   sodipodi:docname="openki-logo-web-avatar-2020.svg"
   inkscape:version="1.0.2 (e86c8708, 2021-01-15)">
  <metadata
     id="metadata847">
    <rdf:RDF>
      <cc:Work
         rdf:about="">
        <dc:format>image/svg+xml</dc:format>
        <dc:type
           rdf:resource="http://purl.org/dc/dcmitype/StillImage" />
      </cc:Work>
    </rdf:RDF>
  </metadata>
  <defs
     id="defs845" />
  <sodipodi:namedview
     pagecolor="#ffffff"
     bordercolor="#666666"
     borderopacity="1"
     objecttolerance="10"
     gridtolerance="10"
     guidetolerance="10"
     inkscape:pageopacity="0"
     inkscape:pageshadow="2"
     inkscape:window-width="1629"
     inkscape:window-height="756"
     id="namedview843"
     showgrid="false"
     inkscape:zoom="1.3611111"
     inkscape:cx="387.21704"
     inkscape:cy="245.02041"
     inkscape:window-x="0"
     inkscape:window-y="23"
     inkscape:window-maximized="0"
     inkscape:current-layer="svg841"
     inkscape:document-rotation="0" />
  <path
     d="M176.49 416.19l-.1-.06.07-.06.03.12"
     id="path833" />
  <path
     fill="#f66"
     d="M348.74 128.77c-6.6-12.54 10.03-40.09 22.4-54.14 7.96-9.06 15.13-18.6 23.59-27.28 9.48-9.73 28.99-24.72 28.99-24.72-34.76 1.08-46.02 2.83-70.8 9.12-45.34 11.5-79.56 38.43-109.44 71.7-10.2 11.36-20.65 22.59-35.96 27.81-6.7 2.3-6.66 5.33-10.6-1.49-8.15-14.17 15-59.43 31.67-61.67-33.09 4.45-63.93 31.6-85.5 56.56-25.74 29.8-43.8 69.43-42.04 110.6a119.24 119.24 0 005.74 32.02c1.6 4.88 3.31 10.8 6.2 15.08a58.6 58.6 0 006.8 7.97v-1.41c.05-7.88.29-20.34.63-23.38 1.08-9.54 3.63-23.66 9.66-36.74 5.07-11 10.23-19 17.28-26.76a115.58 115.58 0 0124.73-20.6c16.79-10.38 32.3-15.95 47.41-17.04l.44-.03h21.94l.43.03c15.9 1.15 32.57 6.93 48.2 16.73a115.68 115.68 0 0124.6 20.75c7 7.8 12.12 15.83 17.11 26.86 5.94 13.11 8.41 27.25 9.43 36.81.32 3.01.48 15.73.49 23.37 0 3.38-.02 8.01-.12 12.03 4.17 4.57 4 10.16 3.92 12.57v.34c.33 3.85.25 7.58-.07 11.19 3.13-1.56 5.69-3.48 8.8-5.3 3.22-1.86 16.85-11.75 23.34-20.17 8.84-11.48 14.9-20.45 19.4-35 3-9.76 8.13-29.45 6.85-47.47-11.32 15.8-25.94 21.42-40.36 20.57 13.31-48.48 28.63-49.19 44.98-83.86 4.86-10.3 13.2-43.68 10.5-57.08-16.76 17.41-44.4 30.45-70.64 32.03m-35.86 50.95c.1-.16.1-.29-.08-.34.2.05.21.12.2.19 0 .08 0 .15-.12.15"
     id="path835"
     style="fill:#ffcccc;fill-opacity:1" />
  <path
     d="M312.25 156.75c.2.05.18.18.09.34.11 0 .12-.07.12-.15 0-.07 0-.13-.21-.2M134.6 357.16c1.04 1.96 1.94 4.1 3.36 5.88 2.16 2.7 3.3 1.48 6.15 2.09.52.1 4.71 12.53 5.47 13.97a496.3 496.3 0 018.08 16.22c5.39 11.25 12.8 21.08 21.35 30.56 9.1 10.1 13.83 16.05 26.58 23.3 8.7 4.96 18.05 6.98 27.5 6.98 9.43 0 15.64-1.81 24.32-6.79 12.72-7.3 16.9-12.24 25.97-22.36 16.46-18.36 27.35-41.93 35-64.35.6.18 1.16.26 1.7.26 6.15 0 8.15-10.7 9.68-14.84 3.99-10.76 7.41-21.97 6.13-33.44-.17-1.54.36-4.29-.88-5.54-.56-.58-1.57-.72-2.42-.72h-.22c-.67.02-1.2.12-1.3.14 1.25-.4-.23-38.37-.74-42.11-1.5-11.13-4.47-22.98-9.47-33.15-4.44-9.07-9-16.23-16.03-23.59a105.36 105.36 0 00-22.95-18.15c-13.43-7.84-27.45-14.05-42.44-14.89l-16.81-.06c-15 .84-28.5 7.4-41.96 15.19a105.52 105.52 0 00-23.02 18.07c-7.07 7.33-11.64 14.47-16.12 23.52-5.03 10.16-8.05 22-9.6 33.12-.52 3.73-2.13 41.7-.9 42.1-.1-.02-.62-.12-1.28-.14h-.27c-.85 0-1.82.14-2.39.7-1.24 1.24-.72 4-.9 5.53-.78 6.65.41 13.43 1.16 20.02.9 7.99 3.44 15.3 7.25 22.48"
     id="path837" />
  <path
     d="M448.77 539.49c-6.85-22.54-11.93-38.2-28.46-54.03-10.95-10.48-71.08-36.67-79.28-39.04-16.58-4.79-33.87-9.42-51.05-12.14l-.35.4c-8.59 9.58-13.77 15.36-27.36 23.16-10.28 5.9-18.18 8.08-29.18 8.08-11.84 0-22.72-2.77-32.33-8.25-13.02-7.41-18.77-13.83-26.72-22.71l-.96-1.07c-29.93 4.19-80.4 17.13-87.46 19.7-11.15 4.04-43.76 16.89-53.65 28.04-15.82 17.85-24.43 35.96-31.43 58.5 149.41.14 298.82-1.17 448.23-.64z"
     id="path839" />
</svg>
