<svg xmlns="http://www.w3.org/2000/svg" viewBox="0 0 448.2 540"><path d="M176.5 416.2h-.1v-.1"/><path fill="#fcc" d="M348.7 128.8c-6.6-12.6 10-40.1 22.4-54.2 8-9 15.2-18.6 23.6-27.2 9.5-9.8 29-24.8 29-24.8-34.7 1.1-46 2.9-70.8 9.2-45.3 11.5-79.5 38.4-109.4 71.7-10.2 11.3-20.7 22.5-36 27.8-6.7 2.3-6.6 5.3-10.6-1.5-8.1-14.2 15-59.5 31.7-61.7-33.1 4.5-64 31.6-85.5 56.6-25.8 29.8-43.8 69.4-42 110.6a119.2 119.2 0 005.7 32c1.6 4.9 3.3 10.8 6.2 15a58.6 58.6 0 006.8 8V289c0-7.9.3-20.3.6-23.4 1.1-9.5 3.6-23.6 9.7-36.7 5-11 10.2-19 17.3-26.8a115.6 115.6 0 0124.7-20.6c16.8-10.3 32.3-16 47.4-17H242.3c16 1.1 32.6 7 48.2 16.7a115.7 115.7 0 0124.6 20.8 99 99 0 0117.1 26.8c6 13.1 8.4 27.3 9.5 36.8a437.7 437.7 0 01.3 35.4 17 17 0 014 12.6v.4c.3 3.8.2 7.5-.1 11.1 3.1-1.5 5.7-3.4 8.8-5.3a102 102 0 0042.7-55.2c3-9.7 8.1-29.4 6.9-47.4a45 45 0 01-40.4 20.6c13.3-48.5 28.6-49.2 45-83.9 4.8-10.3 13.2-43.7 10.5-57a112.8 112.8 0 01-70.7 32m-35.8 51l-.1-.4c.2 0 .2.1.2.2l-.1.1"/><path d="M312.3 156.8v.3c.1 0 .2 0 .2-.2l-.3-.2M134.7 357.2c1 2 2 4 3.4 5.8 2.1 2.7 3.3 1.5 6.1 2.1.5.1 4.7 12.6 5.5 14a496.3 496.3 0 018 16.2c5.5 11.3 12.9 21.1 21.4 30.6 9.1 10 13.8 16 26.6 23.3 8.7 5 18 7 27.5 7 9.4 0 15.6-1.8 24.3-6.8 12.7-7.3 17-12.3 26-22.4 16.4-18.3 27.3-42 35-64.3l1.7.2c6.1 0 8.1-10.7 9.7-14.8 4-10.8 7.4-22 6-33.5 0-1.5.4-4.2-.8-5.5-.6-.6-1.6-.7-2.4-.7h-.2l-1.3.1c1.2-.4-.3-38.3-.8-42-1.5-11.2-4.4-23-9.4-33.2a88 88 0 00-16-23.6 105.4 105.4 0 00-23-18.2 96 96 0 00-42.5-14.9h-16.8c-15 .8-28.5 7.4-42 15.2a105.5 105.5 0 00-23 18 87.8 87.8 0 00-16 23.5c-5.1 10.2-8.1 22-9.7 33.2-.5 3.7-2.1 41.7-.9 42h-1.5c-.9 0-1.8 0-2.4.6-1.3 1.3-.7 4-1 5.6-.7 6.6.5 13.4 1.2 20 1 8 3.5 15.3 7.3 22.5"/><path d="M448.8 539.5c-6.9-22.5-12-38.2-28.5-54-11-10.5-71-36.7-79.3-39a426.8 426.8 0 00-51-12.2l-.4.4c-8.6 9.6-13.7 15.3-27.3 23.1A53 53 0 01233 466a64.4 64.4 0 01-32.3-8.2A93.6 93.6 0 01174 435l-1-1.1c-29.9 4.2-80.3 17.1-87.4 19.7-11.1 4-43.7 16.9-53.6 28A149 149 0 00.5 540.1c149.4.2 298.9-1.1 448.3-.6z"/></svg>